<svg width="22" height="22" viewBox="0 0 22 22" fill="none" xmlns="http://www.w3.org/2000/svg">
  <path fill-rule="evenodd" clip-rule="evenodd" d="M17.2071 6.20711C17.5976 5.81658 17.5976 5.18342 17.2071 4.79289C16.8166 4.40237 16.1834 4.40237 15.7929 4.79289L11 9.58579L6.20711 4.79289C5.81658 4.40237 5.18342 4.40237 4.79289 4.79289C4.40237 5.18342 4.40237 5.81658 4.79289 6.20711L9.58579 11L4.79289 15.7929C4.40237 16.1834 4.40237 16.8166 4.79289 17.2071C5.18342 17.5976 5.81658 17.5976 6.20711 17.2071L11 12.4142L15.7929 17.2071C16.1834 17.5976 16.8166 17.5976 17.2071 17.2071C17.5976 16.8166 17.5976 16.1834 17.2071 15.7929L12.4142 11L17.2071 6.20711Z" fill="currentColor"/>
</svg>
